<svg width="221" height="171" viewBox="0 0 221 171" fill="none" xmlns="http://www.w3.org/2000/svg">
<path d="M12.5068 5.48291H73.5318C84.3217 5.48291 94.6697 9.24023 102.299 15.9283C109.929 22.6164 114.215 31.6874 114.215 41.1457V165.966C114.215 158.872 111 152.069 105.278 147.053C99.5561 142.037 91.7951 139.219 83.7027 139.219H12.5068V5.48291Z" stroke="#553735" stroke-width="9" stroke-linecap="round" stroke-linejoin="round"/>
<path d="M215.924 5.48291H154.899C144.109 5.48291 133.761 9.24023 126.132 15.9283C118.502 22.6164 114.216 31.6874 114.216 41.1457V165.966C114.216 158.872 117.431 152.069 123.153 147.053C128.875 142.037 136.636 139.219 144.728 139.219H215.924V5.48291Z" stroke="#553735" stroke-width="9" stroke-linecap="round" stroke-linejoin="round"/>
<path d="M61.9316 81.3127C61.9316 81.3127 45.0146 84.0184 33.313 77.0063C21.6115 69.9942 7.04058 48.4195 7.04058 48.4195C7.04058 48.4195 31.7342 46.8299 48.2417 56.722C64.7491 66.614 61.9316 81.3127 61.9316 81.3127Z" fill="#889F69"/>
<path d="M61.0238 82.7541C61.0238 82.7541 43.5201 87.3071 31.4666 80.7988C19.413 74.2904 4.48164 52.224 4.48164 52.224C4.48164 52.224 30.0175 48.1435 47.0216 57.3249C64.0256 66.5063 61.0238 82.7541 61.0238 82.7541Z" fill="#018D36"/>
<g filter="url(#filter0_d_150_103)">
<path d="M47.9758 74.2049V100.287L43.2718 101.925C42.1518 102.317 41.5918 101.995 41.5918 100.959V74.2049H31.7638V68.7449H57.8038V74.2049H47.9758ZM64.5304 78.8249C65.2584 78.2089 66.0704 77.7329 66.9664 77.3969C67.8624 77.0609 68.8704 76.8929 69.9904 76.8929C71.3624 76.8929 72.6644 77.0889 73.8964 77.4809C75.1284 77.8729 76.1924 78.4889 77.0884 79.3289C78.0124 80.1409 78.7404 81.2049 79.2724 82.5209C79.8044 83.8089 80.0704 85.3489 80.0704 87.1409V100.329L75.4504 101.925C74.3304 102.317 73.7704 101.995 73.7704 100.959V86.9309C73.7704 85.3629 73.3364 84.2149 72.4684 83.4869C71.6004 82.7309 70.4944 82.3529 69.1504 82.3529C67.8064 82.3529 66.7144 82.7729 65.8744 83.6129C65.0344 84.4529 64.5864 85.6289 64.5304 87.1409V100.329L59.9104 101.925C58.7904 102.317 58.2304 101.995 58.2304 100.959V68.3249H64.5304V78.8249ZM87.6156 91.7189V92.4749C87.6156 93.9869 88.0216 95.0929 88.8336 95.7929C89.6736 96.4929 90.7376 96.8429 92.0256 96.8429C93.1736 96.8429 94.1396 96.5909 94.9236 96.0869C95.7076 95.5549 96.1976 94.8129 96.3936 93.8609L102.652 94.3649C102.484 95.5969 102.092 96.7029 101.476 97.6829C100.86 98.6349 100.062 99.4329 99.0816 100.077C98.1296 100.749 97.0516 101.253 95.8476 101.589C94.6436 101.925 93.3696 102.093 92.0256 102.093C90.5416 102.093 89.1556 101.897 87.8676 101.505C86.5796 101.141 85.4456 100.553 84.4656 99.7409C83.4856 98.9289 82.7156 97.8929 82.1556 96.6329C81.5956 95.3449 81.3156 93.8189 81.3156 92.0549V86.9309C81.3156 85.1669 81.5956 83.6549 82.1556 82.3949C82.7156 81.1069 83.4856 80.0569 84.4656 79.2449C85.4456 78.4329 86.5796 77.8449 87.8676 77.4809C89.1556 77.0889 90.5416 76.8929 92.0256 76.8929C93.4816 76.8929 94.8536 77.0889 96.1416 77.4809C97.4576 77.8449 98.6056 78.4329 99.5856 79.2449C100.566 80.0569 101.336 81.1069 101.896 82.3949C102.456 83.6549 102.736 85.1669 102.736 86.9309V91.7189H87.6156ZM87.6156 86.5109H96.4356V86.0909C96.4356 84.8589 96.0156 83.8929 95.1756 83.1929C94.3636 82.4929 93.3136 82.1429 92.0256 82.1429C90.7376 82.1429 89.6736 82.4929 88.8336 83.1929C88.0216 83.8929 87.6156 84.8589 87.6156 86.0909V86.5109ZM116.167 78.8249C116.895 78.2089 117.707 77.7329 118.603 77.3969C119.499 77.0609 120.507 76.8929 121.627 76.8929C122.999 76.8929 124.301 77.0889 125.533 77.4809C126.765 77.8729 127.829 78.4889 128.725 79.3289C129.649 80.1409 130.377 81.2049 130.909 82.5209C131.441 83.8089 131.707 85.3489 131.707 87.1409V91.5089C131.707 93.3289 131.441 94.8829 130.909 96.1709C130.377 97.4589 129.649 98.5089 128.725 99.3209C127.829 100.161 126.765 100.777 125.533 101.169C124.301 101.561 122.999 101.757 121.627 101.757C120.367 101.757 119.219 101.533 118.183 101.085C117.175 100.637 116.307 100.035 115.579 99.2789V100.497L111.547 101.925C110.427 102.317 109.867 101.995 109.867 100.959V68.3249H116.167V78.8249ZM125.407 86.9309C125.407 85.3629 124.973 84.2149 124.105 83.4869C123.237 82.7309 122.131 82.3529 120.787 82.3529C119.443 82.3529 118.337 82.8009 117.469 83.6969C116.601 84.5649 116.167 85.7829 116.167 87.3509V91.2989C116.167 92.8669 116.601 94.0989 117.469 94.9949C118.337 95.8629 119.443 96.2969 120.787 96.2969C122.131 96.2969 123.237 95.9329 124.105 95.2049C124.973 94.4489 125.407 93.2869 125.407 91.7189V86.9309ZM153.552 92.0549C153.552 93.8189 153.272 95.3449 152.712 96.6329C152.152 97.8929 151.382 98.9289 150.402 99.7409C149.422 100.553 148.274 101.141 146.958 101.505C145.67 101.897 144.298 102.093 142.842 102.093C141.358 102.093 139.972 101.897 138.684 101.505C137.396 101.141 136.262 100.553 135.282 99.7409C134.302 98.9289 133.532 97.8929 132.972 96.6329C132.412 95.3449 132.132 93.8189 132.132 92.0549V86.9309C132.132 85.1669 132.412 83.6549 132.972 82.3949C133.532 81.1069 134.302 80.0569 135.282 79.2449C136.262 78.4329 137.396 77.8449 138.684 77.4809C139.972 77.0889 141.358 76.8929 142.842 76.8929C144.298 76.8929 145.67 77.0889 146.958 77.4809C148.274 77.8449 149.422 78.4329 150.402 79.2449C151.382 80.0569 152.152 81.1069 152.712 82.3949C153.272 83.6549 153.552 85.1669 153.552 86.9309V92.0549ZM147.252 86.7209C147.252 85.2089 146.832 84.1029 145.992 83.4029C145.18 82.7029 144.13 82.3529 142.842 82.3529C141.554 82.3529 140.49 82.7029 139.65 83.4029C138.838 84.1029 138.432 85.2089 138.432 86.7209V92.2649C138.432 93.7769 138.838 94.8829 139.65 95.5829C140.49 96.2829 141.554 96.6329 142.842 96.6329C144.13 96.6329 145.18 96.2829 145.992 95.5829C146.832 94.8829 147.252 93.7769 147.252 92.2649V86.7209ZM175.386 92.0549C175.386 93.8189 175.106 95.3449 174.546 96.6329C173.986 97.8929 173.216 98.9289 172.236 99.7409C171.256 100.553 170.108 101.141 168.792 101.505C167.504 101.897 166.132 102.093 164.676 102.093C163.192 102.093 161.806 101.897 160.518 101.505C159.23 101.141 158.096 100.553 157.116 99.7409C156.136 98.9289 155.366 97.8929 154.806 96.6329C154.246 95.3449 153.966 93.8189 153.966 92.0549V86.9309C153.966 85.1669 154.246 83.6549 154.806 82.3949C155.366 81.1069 156.136 80.0569 157.116 79.2449C158.096 78.4329 159.23 77.8449 160.518 77.4809C161.806 77.0889 163.192 76.8929 164.676 76.8929C166.132 76.8929 167.504 77.0889 168.792 77.4809C170.108 77.8449 171.256 78.4329 172.236 79.2449C173.216 80.0569 173.986 81.1069 174.546 82.3949C175.106 83.6549 175.386 85.1669 175.386 86.9309V92.0549ZM169.086 86.7209C169.086 85.2089 168.666 84.1029 167.826 83.4029C167.014 82.7029 165.964 82.3529 164.676 82.3529C163.388 82.3529 162.324 82.7029 161.484 83.4029C160.672 84.1029 160.266 85.2089 160.266 86.7209V92.2649C160.266 93.7769 160.672 94.8829 161.484 95.5829C162.324 96.2829 163.388 96.6329 164.676 96.6329C165.964 96.6329 167.014 96.2829 167.826 95.5829C168.666 94.8829 169.086 93.7769 169.086 92.2649V86.7209ZM178.319 101.925C177.199 102.317 176.639 101.995 176.639 100.959V68.3249H182.939V87.0989L191.507 77.7329H199.319L188.777 88.9889L199.739 101.253H191.801L182.939 91.1309V100.329L178.319 101.925Z" fill="white"/>
</g>
<defs>
<filter id="filter0_d_150_103" x="27.7637" y="68.3247" width="175.976" height="42.188" filterUnits="userSpaceOnUse" color-interpolation-filters="sRGB">
<feFlood flood-opacity="0" result="BackgroundImageFix"/>
<feColorMatrix in="SourceAlpha" type="matrix" values="0 0 0 0 0 0 0 0 0 0 0 0 0 0 0 0 0 0 127 0" result="hardAlpha"/>
<feOffset dy="4"/>
<feGaussianBlur stdDeviation="2"/>
<feComposite in2="hardAlpha" operator="out"/>
<feColorMatrix type="matrix" values="0 0 0 0 0 0 0 0 0 0 0 0 0 0 0 0 0 0 0.25 0"/>
<feBlend mode="normal" in2="BackgroundImageFix" result="effect1_dropShadow_150_103"/>
<feBlend mode="normal" in="SourceGraphic" in2="effect1_dropShadow_150_103" result="shape"/>
</filter>
</defs>
</svg>
