<svg width="221" height="170" viewBox="0 0 221 170" fill="none" xmlns="http://www.w3.org/2000/svg">
<path d="M12.5059 5H73.5309C84.3207 5 94.6687 8.75732 102.298 15.4454C109.928 22.1335 114.214 31.2045 114.214 40.6628V165.483C114.214 158.389 110.999 151.586 105.277 146.57C99.5551 141.554 91.7941 138.736 83.7017 138.736H12.5059V5Z" fill="#E2DBD0" stroke="white" stroke-width="9" stroke-linecap="round" stroke-linejoin="round"/>
<path d="M215.923 5H154.898C144.108 5 133.76 8.75732 126.131 15.4454C118.501 22.1335 114.215 31.2045 114.215 40.6628V165.483C114.215 158.389 117.43 151.586 123.152 146.57C128.874 141.554 136.635 138.736 144.727 138.736H215.923V5Z" fill="#BED297" stroke="white" stroke-width="9" stroke-linecap="round" stroke-linejoin="round"/>
<g filter="url(#filter0_d_205_22)">
<path d="M61.9306 80.8297C61.9306 80.8297 45.0136 83.5355 33.3121 76.5234C21.6105 69.5113 7.03961 47.9365 7.03961 47.9365C7.03961 47.9365 31.7332 46.347 48.2407 56.239C64.7482 66.1311 61.9306 80.8297 61.9306 80.8297Z" fill="#FFEEEA"/>
</g>
<g filter="url(#filter1_d_205_22)">
<path d="M61.0228 82.2707C61.0228 82.2707 43.5191 86.8237 31.4656 80.3154C19.412 73.807 4.48067 51.7406 4.48067 51.7406C4.48067 51.7406 30.0165 47.6601 47.0206 56.8415C64.0247 66.0229 61.0228 82.2707 61.0228 82.2707Z" fill="#83BA0B"/>
</g>
<g filter="url(#filter2_d_205_22)">
<path d="M47.9758 73.722V99.804L43.2718 101.442C42.1518 101.834 41.5918 101.512 41.5918 100.476V73.722H31.7638V68.262H57.8038V73.722H47.9758ZM64.5304 78.342C65.2584 77.726 66.0704 77.25 66.9664 76.914C67.8624 76.578 68.8704 76.41 69.9904 76.41C71.3624 76.41 72.6644 76.606 73.8964 76.998C75.1284 77.39 76.1924 78.006 77.0884 78.846C78.0124 79.658 78.7404 80.722 79.2724 82.038C79.8044 83.326 80.0704 84.866 80.0704 86.658V99.846L75.4504 101.442C74.3304 101.834 73.7704 101.512 73.7704 100.476V86.448C73.7704 84.88 73.3364 83.732 72.4684 83.004C71.6004 82.248 70.4944 81.87 69.1504 81.87C67.8064 81.87 66.7144 82.29 65.8744 83.13C65.0344 83.97 64.5864 85.146 64.5304 86.658V99.846L59.9104 101.442C58.7904 101.834 58.2304 101.512 58.2304 100.476V67.842H64.5304V78.342ZM87.6156 91.236V91.992C87.6156 93.504 88.0216 94.61 88.8336 95.31C89.6736 96.01 90.7376 96.36 92.0256 96.36C93.1736 96.36 94.1396 96.108 94.9236 95.604C95.7076 95.072 96.1976 94.33 96.3936 93.378L102.652 93.882C102.484 95.114 102.092 96.22 101.476 97.2C100.86 98.152 100.062 98.95 99.0816 99.594C98.1296 100.266 97.0516 100.77 95.8476 101.106C94.6436 101.442 93.3696 101.61 92.0256 101.61C90.5416 101.61 89.1556 101.414 87.8676 101.022C86.5796 100.658 85.4456 100.07 84.4656 99.258C83.4856 98.446 82.7156 97.41 82.1556 96.15C81.5956 94.862 81.3156 93.336 81.3156 91.572V86.448C81.3156 84.684 81.5956 83.172 82.1556 81.912C82.7156 80.624 83.4856 79.574 84.4656 78.762C85.4456 77.95 86.5796 77.362 87.8676 76.998C89.1556 76.606 90.5416 76.41 92.0256 76.41C93.4816 76.41 94.8536 76.606 96.1416 76.998C97.4576 77.362 98.6056 77.95 99.5856 78.762C100.566 79.574 101.336 80.624 101.896 81.912C102.456 83.172 102.736 84.684 102.736 86.448V91.236H87.6156ZM87.6156 86.028H96.4356V85.608C96.4356 84.376 96.0156 83.41 95.1756 82.71C94.3636 82.01 93.3136 81.66 92.0256 81.66C90.7376 81.66 89.6736 82.01 88.8336 82.71C88.0216 83.41 87.6156 84.376 87.6156 85.608V86.028ZM116.167 78.342C116.895 77.726 117.707 77.25 118.603 76.914C119.499 76.578 120.507 76.41 121.627 76.41C122.999 76.41 124.301 76.606 125.533 76.998C126.765 77.39 127.829 78.006 128.725 78.846C129.649 79.658 130.377 80.722 130.909 82.038C131.441 83.326 131.707 84.866 131.707 86.658V91.026C131.707 92.846 131.441 94.4 130.909 95.688C130.377 96.976 129.649 98.026 128.725 98.838C127.829 99.678 126.765 100.294 125.533 100.686C124.301 101.078 122.999 101.274 121.627 101.274C120.367 101.274 119.219 101.05 118.183 100.602C117.175 100.154 116.307 99.552 115.579 98.796V100.014L111.547 101.442C110.427 101.834 109.867 101.512 109.867 100.476V67.842H116.167V78.342ZM125.407 86.448C125.407 84.88 124.973 83.732 124.105 83.004C123.237 82.248 122.131 81.87 120.787 81.87C119.443 81.87 118.337 82.318 117.469 83.214C116.601 84.082 116.167 85.3 116.167 86.868V90.816C116.167 92.384 116.601 93.616 117.469 94.512C118.337 95.38 119.443 95.814 120.787 95.814C122.131 95.814 123.237 95.45 124.105 94.722C124.973 93.966 125.407 92.804 125.407 91.236V86.448ZM153.552 91.572C153.552 93.336 153.272 94.862 152.712 96.15C152.152 97.41 151.382 98.446 150.402 99.258C149.422 100.07 148.274 100.658 146.958 101.022C145.67 101.414 144.298 101.61 142.842 101.61C141.358 101.61 139.972 101.414 138.684 101.022C137.396 100.658 136.262 100.07 135.282 99.258C134.302 98.446 133.532 97.41 132.972 96.15C132.412 94.862 132.132 93.336 132.132 91.572V86.448C132.132 84.684 132.412 83.172 132.972 81.912C133.532 80.624 134.302 79.574 135.282 78.762C136.262 77.95 137.396 77.362 138.684 76.998C139.972 76.606 141.358 76.41 142.842 76.41C144.298 76.41 145.67 76.606 146.958 76.998C148.274 77.362 149.422 77.95 150.402 78.762C151.382 79.574 152.152 80.624 152.712 81.912C153.272 83.172 153.552 84.684 153.552 86.448V91.572ZM147.252 86.238C147.252 84.726 146.832 83.62 145.992 82.92C145.18 82.22 144.13 81.87 142.842 81.87C141.554 81.87 140.49 82.22 139.65 82.92C138.838 83.62 138.432 84.726 138.432 86.238V91.782C138.432 93.294 138.838 94.4 139.65 95.1C140.49 95.8 141.554 96.15 142.842 96.15C144.13 96.15 145.18 95.8 145.992 95.1C146.832 94.4 147.252 93.294 147.252 91.782V86.238ZM175.386 91.572C175.386 93.336 175.106 94.862 174.546 96.15C173.986 97.41 173.216 98.446 172.236 99.258C171.256 100.07 170.108 100.658 168.792 101.022C167.504 101.414 166.132 101.61 164.676 101.61C163.192 101.61 161.806 101.414 160.518 101.022C159.23 100.658 158.096 100.07 157.116 99.258C156.136 98.446 155.366 97.41 154.806 96.15C154.246 94.862 153.966 93.336 153.966 91.572V86.448C153.966 84.684 154.246 83.172 154.806 81.912C155.366 80.624 156.136 79.574 157.116 78.762C158.096 77.95 159.23 77.362 160.518 76.998C161.806 76.606 163.192 76.41 164.676 76.41C166.132 76.41 167.504 76.606 168.792 76.998C170.108 77.362 171.256 77.95 172.236 78.762C173.216 79.574 173.986 80.624 174.546 81.912C175.106 83.172 175.386 84.684 175.386 86.448V91.572ZM169.086 86.238C169.086 84.726 168.666 83.62 167.826 82.92C167.014 82.22 165.964 81.87 164.676 81.87C163.388 81.87 162.324 82.22 161.484 82.92C160.672 83.62 160.266 84.726 160.266 86.238V91.782C160.266 93.294 160.672 94.4 161.484 95.1C162.324 95.8 163.388 96.15 164.676 96.15C165.964 96.15 167.014 95.8 167.826 95.1C168.666 94.4 169.086 93.294 169.086 91.782V86.238ZM178.319 101.442C177.199 101.834 176.639 101.512 176.639 100.476V67.842H182.939V86.616L191.507 77.25H199.319L188.777 88.506L199.739 100.77H191.801L182.939 90.648V99.846L178.319 101.442Z" fill="#553735"/>
</g>
<defs>
<filter id="filter0_d_205_22" x="3.03906" y="47.8428" width="63.0742" height="41.5" filterUnits="userSpaceOnUse" color-interpolation-filters="sRGB">
<feFlood flood-opacity="0" result="BackgroundImageFix"/>
<feColorMatrix in="SourceAlpha" type="matrix" values="0 0 0 0 0 0 0 0 0 0 0 0 0 0 0 0 0 0 127 0" result="hardAlpha"/>
<feOffset dy="4"/>
<feGaussianBlur stdDeviation="2"/>
<feComposite in2="hardAlpha" operator="out"/>
<feColorMatrix type="matrix" values="0 0 0 0 0 0 0 0 0 0 0 0 0 0 0 0 0 0 0.25 0"/>
<feBlend mode="normal" in2="BackgroundImageFix" result="effect1_dropShadow_205_22"/>
<feBlend mode="normal" in="SourceGraphic" in2="effect1_dropShadow_205_22" result="shape"/>
</filter>
<filter id="filter1_d_205_22" x="0.480469" y="50.8369" width="64.7461" height="40.9824" filterUnits="userSpaceOnUse" color-interpolation-filters="sRGB">
<feFlood flood-opacity="0" result="BackgroundImageFix"/>
<feColorMatrix in="SourceAlpha" type="matrix" values="0 0 0 0 0 0 0 0 0 0 0 0 0 0 0 0 0 0 127 0" result="hardAlpha"/>
<feOffset dy="4"/>
<feGaussianBlur stdDeviation="2"/>
<feComposite in2="hardAlpha" operator="out"/>
<feColorMatrix type="matrix" values="0 0 0 0 0 0 0 0 0 0 0 0 0 0 0 0 0 0 0.25 0"/>
<feBlend mode="normal" in2="BackgroundImageFix" result="effect1_dropShadow_205_22"/>
<feBlend mode="normal" in="SourceGraphic" in2="effect1_dropShadow_205_22" result="shape"/>
</filter>
<filter id="filter2_d_205_22" x="27.7637" y="67.8418" width="175.975" height="42.1885" filterUnits="userSpaceOnUse" color-interpolation-filters="sRGB">
<feFlood flood-opacity="0" result="BackgroundImageFix"/>
<feColorMatrix in="SourceAlpha" type="matrix" values="0 0 0 0 0 0 0 0 0 0 0 0 0 0 0 0 0 0 127 0" result="hardAlpha"/>
<feOffset dy="4"/>
<feGaussianBlur stdDeviation="2"/>
<feComposite in2="hardAlpha" operator="out"/>
<feColorMatrix type="matrix" values="0 0 0 0 0 0 0 0 0 0 0 0 0 0 0 0 0 0 0.25 0"/>
<feBlend mode="normal" in2="BackgroundImageFix" result="effect1_dropShadow_205_22"/>
<feBlend mode="normal" in="SourceGraphic" in2="effect1_dropShadow_205_22" result="shape"/>
</filter>
</defs>
</svg>
