<svg width="339" height="130" viewBox="0 0 339 130" fill="none" xmlns="http://www.w3.org/2000/svg">
<path d="M104.814 99.0365C104.814 99.0365 77.5837 96.2163 62.4227 80.554C47.2617 64.8916 33.6947 25.5655 33.6947 25.5655C33.6947 25.5655 72.4659 33.3246 93.8537 55.4198C115.241 77.5148 104.814 99.0365 104.814 99.0365Z" fill="#889F69"/>
<path d="M108.543 97.212C108.543 97.212 81.4343 107.229 61.2363 98.7933C41.038 90.3575 13.7953 57.6409 13.7953 57.6409C13.7953 57.6409 53.7503 47.1008 82.244 59.0011C110.738 70.9014 108.543 97.212 108.543 97.212Z" fill="#018D36"/>
<g filter="url(#filter0_d_233_144)">
<path d="M299.79 121.56C298 122.187 297.105 121.672 297.105 120.017V67.8701H307.172V97.8694L320.863 82.9033H333.346L316.501 100.889L334.017 120.486H321.333L307.172 104.312V119.01L299.79 121.56Z" fill="#1E1E1E"/>
</g>
<g filter="url(#filter1_d_233_144)">
<path d="M295.104 105.788C295.104 108.606 294.657 111.045 293.762 113.103C292.867 115.116 291.637 116.772 290.071 118.069C288.505 119.367 286.671 120.306 284.568 120.888C282.51 121.514 280.317 121.828 277.991 121.828C275.619 121.828 273.405 121.514 271.347 120.888C269.288 120.306 267.476 119.367 265.91 118.069C264.344 116.772 263.114 115.116 262.219 113.103C261.324 111.045 260.877 108.606 260.877 105.788V97.6C260.877 94.7812 261.324 92.3652 262.219 90.3518C263.114 88.2937 264.344 86.6159 265.91 85.3184C267.476 84.0209 269.288 83.0813 271.347 82.4996C273.405 81.8733 275.619 81.5601 277.991 81.5601C280.317 81.5601 282.51 81.8733 284.568 82.4996C286.671 83.0813 288.505 84.0209 290.071 85.3184C291.637 86.6159 292.867 88.2937 293.762 90.3518C294.657 92.3652 295.104 94.7812 295.104 97.6V105.788ZM285.037 97.2644C285.037 94.8483 284.366 93.081 283.024 91.9625C281.727 90.844 280.049 90.2847 277.991 90.2847C275.933 90.2847 274.232 90.844 272.89 91.9625C271.593 93.081 270.944 94.8483 270.944 97.2644V106.123C270.944 108.539 271.593 110.307 272.89 111.425C274.232 112.544 275.933 113.103 277.991 113.103C280.049 113.103 281.727 112.544 283.024 111.425C284.366 110.307 285.037 108.539 285.037 106.123V97.2644Z" fill="#1E1E1E"/>
</g>
<g filter="url(#filter2_d_233_144)">
<path d="M260.216 105.788C260.216 108.606 259.768 111.045 258.873 113.103C257.979 115.116 256.748 116.772 255.182 118.069C253.616 119.367 251.782 120.306 249.679 120.888C247.621 121.514 245.429 121.828 243.102 121.828C240.731 121.828 238.516 121.514 236.458 120.888C234.4 120.306 232.588 119.367 231.022 118.069C229.456 116.772 228.225 115.116 227.331 113.103C226.436 111.045 225.988 108.606 225.988 105.788V97.6C225.988 94.7812 226.436 92.3652 227.331 90.3518C228.225 88.2937 229.456 86.6159 231.022 85.3184C232.588 84.0209 234.4 83.0813 236.458 82.4996C238.516 81.8733 240.731 81.5601 243.102 81.5601C245.429 81.5601 247.621 81.8733 249.679 82.4996C251.782 83.0813 253.616 84.0209 255.182 85.3184C256.748 86.6159 257.979 88.2937 258.873 90.3518C259.768 92.3652 260.216 94.7812 260.216 97.6V105.788ZM250.149 97.2644C250.149 94.8483 249.478 93.081 248.135 91.9625C246.838 90.844 245.16 90.2847 243.102 90.2847C241.044 90.2847 239.344 90.844 238.001 91.9625C236.704 93.081 236.055 94.8483 236.055 97.2644V106.123C236.055 108.539 236.704 110.307 238.001 111.425C239.344 112.544 241.044 113.103 243.102 113.103C245.16 113.103 246.838 112.544 248.135 111.425C249.478 110.307 250.149 108.539 250.149 106.123V97.2644Z" fill="#1E1E1E"/>
</g>
<g filter="url(#filter3_d_233_144)">
<path d="M200.477 84.6483C201.64 83.6639 202.938 82.9033 204.37 82.3664C205.801 81.8295 207.412 81.5611 209.202 81.5611C211.394 81.5611 213.475 81.8743 215.443 82.5007C217.412 83.127 219.112 84.1114 220.544 85.4536C222.02 86.7511 223.183 88.4513 224.034 90.5542C224.884 92.6123 225.309 95.0731 225.309 97.9365V104.916C225.309 107.824 224.884 110.308 224.034 112.366C223.183 114.424 222.02 116.102 220.544 117.399C219.112 118.741 217.412 119.726 215.443 120.352C213.475 120.979 211.394 121.292 209.202 121.292C207.188 121.292 205.354 120.934 203.698 120.218C202.088 119.502 200.701 118.54 199.537 117.332V119.278L193.095 121.56C191.305 122.187 190.41 121.672 190.41 120.017V67.8701H200.477V84.6483ZM215.242 97.601C215.242 95.0954 214.548 93.261 213.161 92.0977C211.774 90.8897 210.007 90.2857 207.859 90.2857C205.712 90.2857 203.945 91.0016 202.558 92.4333C201.171 93.8203 200.477 95.7666 200.477 98.2721V104.581C200.477 107.086 201.171 109.055 202.558 110.487C203.945 111.874 205.712 112.567 207.859 112.567C210.007 112.567 211.774 111.985 213.161 110.822C214.548 109.614 215.242 107.757 215.242 105.252V97.601Z" fill="#1E1E1E"/>
</g>
<g filter="url(#filter4_d_233_144)">
<path d="M154.854 105.251V106.459C154.854 108.875 155.503 110.642 156.8 111.761C158.143 112.879 159.843 113.439 161.901 113.439C163.735 113.439 165.279 113.036 166.532 112.23C167.784 111.38 168.567 110.195 168.881 108.674L178.88 109.479C178.612 111.448 177.985 113.215 177.001 114.781C176.017 116.302 174.742 117.577 173.176 118.606C171.655 119.68 169.932 120.485 168.008 121.022C166.084 121.559 164.048 121.828 161.901 121.828C159.529 121.828 157.315 121.514 155.257 120.888C153.199 120.306 151.387 119.367 149.821 118.069C148.255 116.772 147.024 115.116 146.129 113.103C145.235 111.045 144.787 108.606 144.787 105.788V97.6C144.787 94.7812 145.235 92.3652 146.129 90.3518C147.024 88.2937 148.255 86.6159 149.821 85.3184C151.387 84.0209 153.199 83.0813 155.257 82.4996C157.315 81.8733 159.529 81.5601 161.901 81.5601C164.227 81.5601 166.42 81.8733 168.478 82.4996C170.581 83.0813 172.415 84.0209 173.981 85.3184C175.547 86.6159 176.777 88.2937 177.672 90.3518C178.567 92.3652 179.015 94.7812 179.015 97.6V105.251H154.854ZM154.854 96.9288H168.948V96.2577C168.948 94.2891 168.276 92.7455 166.934 91.6269C165.637 90.5084 163.959 89.9491 161.901 89.9491C159.843 89.9491 158.143 90.5084 156.8 91.6269C155.503 92.7455 154.854 94.2891 154.854 96.2577V96.9288Z" fill="#1E1E1E"/>
</g>
<g filter="url(#filter5_d_233_144)">
<path d="M117.963 84.6483C119.127 83.6639 120.424 82.9033 121.856 82.3664C123.288 81.8295 124.898 81.5611 126.688 81.5611C128.88 81.5611 130.961 81.8743 132.929 82.5007C134.898 83.127 136.598 84.1114 138.03 85.4536C139.506 86.7511 140.67 88.4513 141.52 90.5542C142.37 92.6123 142.795 95.0731 142.795 97.9365V119.01L135.413 121.56C133.623 122.187 132.728 121.672 132.728 120.017V97.601C132.728 95.0954 132.035 93.261 130.648 92.0977C129.261 90.8897 127.493 90.2857 125.346 90.2857C123.198 90.2857 121.453 90.9568 120.111 92.2991C118.769 93.6413 118.053 95.5205 117.963 97.9365V119.01L110.581 121.56C108.791 122.187 107.896 121.672 107.896 120.017V67.8701H117.963V84.6483Z" fill="#1E1E1E"/>
</g>
<g filter="url(#filter6_d_233_144)">
<path d="M91.5109 77.2652V118.942L83.9943 121.559C82.2046 122.186 81.3098 121.671 81.3098 120.016V77.2652H65.6055V68.5405H107.215V77.2652H91.5109Z" fill="#1E1E1E"/>
</g>
<defs>
<filter id="filter0_d_233_144" x="293.105" y="67.8701" width="44.9121" height="61.9478" filterUnits="userSpaceOnUse" color-interpolation-filters="sRGB">
<feFlood flood-opacity="0" result="BackgroundImageFix"/>
<feColorMatrix in="SourceAlpha" type="matrix" values="0 0 0 0 0 0 0 0 0 0 0 0 0 0 0 0 0 0 127 0" result="hardAlpha"/>
<feOffset dy="4"/>
<feGaussianBlur stdDeviation="2"/>
<feComposite in2="hardAlpha" operator="out"/>
<feColorMatrix type="matrix" values="0 0 0 0 0 0 0 0 0 0 0 0 0 0 0 0 0 0 0.25 0"/>
<feBlend mode="normal" in2="BackgroundImageFix" result="effect1_dropShadow_233_144"/>
<feBlend mode="normal" in="SourceGraphic" in2="effect1_dropShadow_233_144" result="shape"/>
</filter>
<filter id="filter1_d_233_144" x="256.877" y="81.5601" width="42.2266" height="48.2676" filterUnits="userSpaceOnUse" color-interpolation-filters="sRGB">
<feFlood flood-opacity="0" result="BackgroundImageFix"/>
<feColorMatrix in="SourceAlpha" type="matrix" values="0 0 0 0 0 0 0 0 0 0 0 0 0 0 0 0 0 0 127 0" result="hardAlpha"/>
<feOffset dy="4"/>
<feGaussianBlur stdDeviation="2"/>
<feComposite in2="hardAlpha" operator="out"/>
<feColorMatrix type="matrix" values="0 0 0 0 0 0 0 0 0 0 0 0 0 0 0 0 0 0 0.25 0"/>
<feBlend mode="normal" in2="BackgroundImageFix" result="effect1_dropShadow_233_144"/>
<feBlend mode="normal" in="SourceGraphic" in2="effect1_dropShadow_233_144" result="shape"/>
</filter>
<filter id="filter2_d_233_144" x="221.988" y="81.5601" width="42.2266" height="48.2676" filterUnits="userSpaceOnUse" color-interpolation-filters="sRGB">
<feFlood flood-opacity="0" result="BackgroundImageFix"/>
<feColorMatrix in="SourceAlpha" type="matrix" values="0 0 0 0 0 0 0 0 0 0 0 0 0 0 0 0 0 0 127 0" result="hardAlpha"/>
<feOffset dy="4"/>
<feGaussianBlur stdDeviation="2"/>
<feComposite in2="hardAlpha" operator="out"/>
<feColorMatrix type="matrix" values="0 0 0 0 0 0 0 0 0 0 0 0 0 0 0 0 0 0 0.25 0"/>
<feBlend mode="normal" in2="BackgroundImageFix" result="effect1_dropShadow_233_144"/>
<feBlend mode="normal" in="SourceGraphic" in2="effect1_dropShadow_233_144" result="shape"/>
</filter>
<filter id="filter3_d_233_144" x="186.41" y="67.8701" width="42.8984" height="61.9478" filterUnits="userSpaceOnUse" color-interpolation-filters="sRGB">
<feFlood flood-opacity="0" result="BackgroundImageFix"/>
<feColorMatrix in="SourceAlpha" type="matrix" values="0 0 0 0 0 0 0 0 0 0 0 0 0 0 0 0 0 0 127 0" result="hardAlpha"/>
<feOffset dy="4"/>
<feGaussianBlur stdDeviation="2"/>
<feComposite in2="hardAlpha" operator="out"/>
<feColorMatrix type="matrix" values="0 0 0 0 0 0 0 0 0 0 0 0 0 0 0 0 0 0 0.25 0"/>
<feBlend mode="normal" in2="BackgroundImageFix" result="effect1_dropShadow_233_144"/>
<feBlend mode="normal" in="SourceGraphic" in2="effect1_dropShadow_233_144" result="shape"/>
</filter>
<filter id="filter4_d_233_144" x="140.787" y="81.5601" width="42.2266" height="48.2676" filterUnits="userSpaceOnUse" color-interpolation-filters="sRGB">
<feFlood flood-opacity="0" result="BackgroundImageFix"/>
<feColorMatrix in="SourceAlpha" type="matrix" values="0 0 0 0 0 0 0 0 0 0 0 0 0 0 0 0 0 0 127 0" result="hardAlpha"/>
<feOffset dy="4"/>
<feGaussianBlur stdDeviation="2"/>
<feComposite in2="hardAlpha" operator="out"/>
<feColorMatrix type="matrix" values="0 0 0 0 0 0 0 0 0 0 0 0 0 0 0 0 0 0 0.25 0"/>
<feBlend mode="normal" in2="BackgroundImageFix" result="effect1_dropShadow_233_144"/>
<feBlend mode="normal" in="SourceGraphic" in2="effect1_dropShadow_233_144" result="shape"/>
</filter>
<filter id="filter5_d_233_144" x="103.896" y="67.8701" width="42.8984" height="61.9478" filterUnits="userSpaceOnUse" color-interpolation-filters="sRGB">
<feFlood flood-opacity="0" result="BackgroundImageFix"/>
<feColorMatrix in="SourceAlpha" type="matrix" values="0 0 0 0 0 0 0 0 0 0 0 0 0 0 0 0 0 0 127 0" result="hardAlpha"/>
<feOffset dy="4"/>
<feGaussianBlur stdDeviation="2"/>
<feComposite in2="hardAlpha" operator="out"/>
<feColorMatrix type="matrix" values="0 0 0 0 0 0 0 0 0 0 0 0 0 0 0 0 0 0 0.25 0"/>
<feBlend mode="normal" in2="BackgroundImageFix" result="effect1_dropShadow_233_144"/>
<feBlend mode="normal" in="SourceGraphic" in2="effect1_dropShadow_233_144" result="shape"/>
</filter>
<filter id="filter6_d_233_144" x="61.6055" y="68.5405" width="49.6094" height="61.2769" filterUnits="userSpaceOnUse" color-interpolation-filters="sRGB">
<feFlood flood-opacity="0" result="BackgroundImageFix"/>
<feColorMatrix in="SourceAlpha" type="matrix" values="0 0 0 0 0 0 0 0 0 0 0 0 0 0 0 0 0 0 127 0" result="hardAlpha"/>
<feOffset dy="4"/>
<feGaussianBlur stdDeviation="2"/>
<feComposite in2="hardAlpha" operator="out"/>
<feColorMatrix type="matrix" values="0 0 0 0 0 0 0 0 0 0 0 0 0 0 0 0 0 0 0.25 0"/>
<feBlend mode="normal" in2="BackgroundImageFix" result="effect1_dropShadow_233_144"/>
<feBlend mode="normal" in="SourceGraphic" in2="effect1_dropShadow_233_144" result="shape"/>
</filter>
</defs>
</svg>
