<svg width="824" height="144" viewBox="0 0 824 144" fill="none" xmlns="http://www.w3.org/2000/svg">
<path d="M120.619 98C120.619 98 84.391 94.2382 64.2205 73.3469C44.0499 52.4555 26 0 26 0C26 0 77.5822 10.3495 106.037 39.8214C134.491 69.2931 120.619 98 120.619 98Z" fill="#889F69"/>
<path d="M125.948 95.4997C125.948 95.4997 89.9124 108.627 63.0633 97.5719C36.2137 86.5171 0 43.643 0 43.643C0 43.643 53.1121 29.8305 90.9888 45.4255C128.866 61.0204 125.948 95.4997 125.948 95.4997Z" fill="#018D36"/>
<path d="M99.976 63.936V123.552L89.224 127.296C86.664 128.192 85.384 127.456 85.384 125.088V63.936H62.92V51.456H122.44V63.936H99.976ZM137.815 74.496C139.479 73.088 141.335 72 143.383 71.232C145.431 70.464 147.735 70.08 150.295 70.08C153.431 70.08 156.407 70.528 159.223 71.424C162.039 72.32 164.471 73.728 166.519 75.648C168.631 77.504 170.295 79.936 171.511 82.944C172.727 85.888 173.335 89.408 173.335 93.504V123.648L162.775 127.296C160.215 128.192 158.935 127.456 158.935 125.088V93.024C158.935 89.44 157.943 86.816 155.959 85.152C153.975 83.424 151.447 82.56 148.375 82.56C145.303 82.56 142.807 83.52 140.887 85.44C138.967 87.36 137.943 90.048 137.815 93.504V123.648L127.255 127.296C124.695 128.192 123.415 127.456 123.415 125.088V50.496H137.815V74.496ZM190.581 103.968V105.696C190.581 109.152 191.509 111.68 193.365 113.28C195.285 114.88 197.717 115.68 200.661 115.68C203.285 115.68 205.493 115.104 207.285 113.952C209.077 112.736 210.197 111.04 210.645 108.864L224.949 110.016C224.565 112.832 223.669 115.36 222.261 117.6C220.853 119.776 219.029 121.6 216.789 123.072C214.613 124.608 212.149 125.76 209.397 126.528C206.645 127.296 203.733 127.68 200.661 127.68C197.269 127.68 194.101 127.232 191.157 126.336C188.213 125.504 185.621 124.16 183.381 122.304C181.141 120.448 179.381 118.08 178.101 115.2C176.821 112.256 176.181 108.768 176.181 104.736V93.024C176.181 88.992 176.821 85.536 178.101 82.656C179.381 79.712 181.141 77.312 183.381 75.456C185.621 73.6 188.213 72.256 191.157 71.424C194.101 70.528 197.269 70.08 200.661 70.08C203.989 70.08 207.125 70.528 210.069 71.424C213.077 72.256 215.701 73.6 217.941 75.456C220.181 77.312 221.941 79.712 223.221 82.656C224.501 85.536 225.141 88.992 225.141 93.024V103.968H190.581ZM190.581 92.064H210.741V91.104C210.741 88.288 209.781 86.08 207.861 84.48C206.005 82.88 203.605 82.08 200.661 82.08C197.717 82.08 195.285 82.88 193.365 84.48C191.509 86.08 190.581 88.288 190.581 91.104V92.064ZM255.842 74.496C257.506 73.088 259.362 72 261.41 71.232C263.458 70.464 265.762 70.08 268.322 70.08C271.458 70.08 274.434 70.528 277.25 71.424C280.066 72.32 282.498 73.728 284.546 75.648C286.658 77.504 288.323 79.936 289.538 82.944C290.754 85.888 291.362 89.408 291.362 93.504V103.488C291.362 107.648 290.754 111.2 289.538 114.144C288.323 117.088 286.658 119.488 284.546 121.344C282.498 123.264 280.066 124.672 277.25 125.568C274.434 126.464 271.458 126.912 268.322 126.912C265.442 126.912 262.818 126.4 260.45 125.376C258.146 124.352 256.162 122.976 254.498 121.248V124.032L245.282 127.296C242.722 128.192 241.442 127.456 241.442 125.088V50.496H255.842V74.496ZM276.962 93.024C276.962 89.44 275.97 86.816 273.986 85.152C272.002 83.424 269.474 82.56 266.402 82.56C263.33 82.56 260.802 83.584 258.818 85.632C256.834 87.616 255.842 90.4 255.842 93.984V103.008C255.842 106.592 256.834 109.408 258.818 111.456C260.802 113.44 263.33 114.432 266.402 114.432C269.474 114.432 272.002 113.6 273.986 111.936C275.97 110.208 276.962 107.552 276.962 103.968V93.024ZM341.294 104.736C341.294 108.768 340.654 112.256 339.374 115.2C338.094 118.08 336.334 120.448 334.094 122.304C331.854 124.16 329.23 125.504 326.222 126.336C323.278 127.232 320.142 127.68 316.814 127.68C313.422 127.68 310.254 127.232 307.31 126.336C304.366 125.504 301.774 124.16 299.534 122.304C297.294 120.448 295.534 118.08 294.254 115.2C292.974 112.256 292.334 108.768 292.334 104.736V93.024C292.334 88.992 292.974 85.536 294.254 82.656C295.534 79.712 297.294 77.312 299.534 75.456C301.774 73.6 304.366 72.256 307.31 71.424C310.254 70.528 313.422 70.08 316.814 70.08C320.142 70.08 323.278 70.528 326.222 71.424C329.23 72.256 331.854 73.6 334.094 75.456C336.334 77.312 338.094 79.712 339.374 82.656C340.654 85.536 341.294 88.992 341.294 93.024V104.736ZM326.894 92.544C326.894 89.088 325.934 86.56 324.014 84.96C322.158 83.36 319.758 82.56 316.814 82.56C313.87 82.56 311.438 83.36 309.518 84.96C307.662 86.56 306.734 89.088 306.734 92.544V105.216C306.734 108.672 307.662 111.2 309.518 112.8C311.438 114.4 313.87 115.2 316.814 115.2C319.758 115.2 322.158 114.4 324.014 112.8C325.934 111.2 326.894 108.672 326.894 105.216V92.544ZM391.199 104.736C391.199 108.768 390.559 112.256 389.279 115.2C387.999 118.08 386.239 120.448 383.999 122.304C381.759 124.16 379.135 125.504 376.127 126.336C373.183 127.232 370.047 127.68 366.719 127.68C363.327 127.68 360.159 127.232 357.215 126.336C354.271 125.504 351.679 124.16 349.439 122.304C347.199 120.448 345.439 118.08 344.159 115.2C342.879 112.256 342.239 108.768 342.239 104.736V93.024C342.239 88.992 342.879 85.536 344.159 82.656C345.439 79.712 347.199 77.312 349.439 75.456C351.679 73.6 354.271 72.256 357.215 71.424C360.159 70.528 363.327 70.08 366.719 70.08C370.047 70.08 373.183 70.528 376.127 71.424C379.135 72.256 381.759 73.6 383.999 75.456C386.239 77.312 387.999 79.712 389.279 82.656C390.559 85.536 391.199 88.992 391.199 93.024V104.736ZM376.799 92.544C376.799 89.088 375.839 86.56 373.919 84.96C372.063 83.36 369.663 82.56 366.719 82.56C363.775 82.56 361.343 83.36 359.423 84.96C357.567 86.56 356.639 89.088 356.639 92.544V105.216C356.639 108.672 357.567 111.2 359.423 112.8C361.343 114.4 363.775 115.2 366.719 115.2C369.663 115.2 372.063 114.4 373.919 112.8C375.839 111.2 376.799 108.672 376.799 105.216V92.544ZM397.904 127.296C395.344 128.192 394.064 127.456 394.064 125.088V50.496H408.464V93.408L428.048 72H445.904L421.808 97.728L446.864 125.76H428.72L408.464 102.624V123.648L397.904 127.296Z" fill="#1E1E1E"/>
</svg>
